<?xml version="1.0" standalone="no"?>
<!DOCTYPE svg PUBLIC "-//W3C//DTD SVG 20010904//EN"
 "http://www.w3.org/TR/2001/REC-SVG-20010904/DTD/svg10.dtd">
<svg version="1.0" xmlns="http://www.w3.org/2000/svg"
 width="229.000000pt" height="229.000000pt" viewBox="0 0 229.000000 229.000000"
 preserveAspectRatio="xMidYMid meet">
<metadata>
Created by potrace 1.11, written by Peter Selinger 2001-2013
</metadata>
<g transform="translate(0.000000,229.000000) scale(0.100000,-0.100000)"
fill="#000000" stroke="none">
<path d="M980 2280 c-316 -55 -573 -209 -758 -455 -61 -82 -141 -240 -171
-339 -50 -164 -63 -356 -36 -521 20 -122 35 -174 81 -280 126 -293 387 -530
699 -633 153 -51 373 -65 546 -36 475 80 853 458 933 933 29 173 15 392 -36
546 -29 90 -101 236 -134 275 -16 19 -36 48 -44 65 -25 49 -183 199 -276 261
-104 70 -254 136 -374 165 -98 23 -341 34 -430 19z m129 -580 c49 -25 62 -23
170 21 57 24 81 29 112 24 21 -4 39 -10 39 -14 0 -4 15 -5 33 -3 17 2 61 -4
97 -13 36 -9 76 -19 90 -22 14 -3 43 -19 65 -34 26 -18 63 -32 105 -39 36 -6
83 -15 105 -20 22 -5 66 -10 98 -10 33 0 57 -4 57 -11 0 -19 -80 -166 -101
-185 -12 -11 -30 -37 -41 -59 -22 -43 -47 -75 -59 -75 -4 0 -5 18 -2 40 7 47
-1 50 -35 13 -23 -25 -25 -26 -38 -8 -7 10 -15 23 -17 29 -3 7 -12 4 -26 -8
-21 -19 -21 -19 -46 4 l-25 23 -22 -20 c-24 -22 -48 -21 -48 2 0 25 -21 27
-45 5 -32 -30 -46 -18 -39 33 l6 42 -26 -30 c-14 -16 -31 -45 -37 -64 -11 -32
-10 -36 16 -58 26 -23 28 -23 47 -6 18 16 20 16 29 2 5 -11 17 -15 34 -11 22
4 26 0 31 -27 7 -35 11 -37 42 -15 24 16 42 12 42 -12 0 -17 12 -18 28 -2 9 9
15 8 26 -7 13 -18 14 -17 41 9 l28 28 -6 -29 c-18 -92 -84 -214 -116 -212 -11
0 -12 2 -3 6 20 8 14 33 -9 33 -25 0 -58 17 -81 41 -27 28 -85 40 -133 28 -75
-19 -129 -119 -115 -213 9 -57 -2 -59 -24 -4 -14 34 -19 39 -30 27 -28 -30
-49 -110 -42 -162 l6 -51 -25 36 c-14 21 -25 41 -25 47 0 23 -21 20 -30 -3 -5
-14 -19 -45 -30 -68 -14 -28 -20 -63 -20 -107 l-1 -66 -18 33 -17 33 -26 -68
c-46 -119 -59 -170 -52 -197 9 -38 -3 -32 -21 11 -8 20 -18 34 -21 31 -3 -4
-20 -49 -38 -101 -27 -81 -34 -93 -43 -77 -7 10 -13 61 -15 114 -2 53 -6 96
-9 96 -15 0 -101 -54 -106 -66 -11 -30 -23 -11 -23 37 l0 52 -39 -7 c-21 -3
-52 -3 -69 0 l-30 6 28 78 28 78 -37 -13 c-21 -7 -49 -11 -63 -8 l-26 5 29 58
c16 33 33 62 39 65 5 3 10 15 10 25 0 16 -5 18 -30 14 -39 -8 -40 11 0 56 32
38 37 56 18 63 -10 3 -10 11 -1 37 7 19 11 35 9 38 -2 2 -25 -4 -50 -12 -26
-9 -56 -16 -67 -16 -20 0 -20 -1 -4 73 l5 27 -66 0 c-64 0 -66 1 -59 23 3 12
10 37 15 55 4 18 14 39 20 47 16 19 7 19 -33 -2 -50 -26 -99 -27 -144 -5 -38
20 -119 99 -110 108 2 3 20 -4 38 -14 71 -41 220 -55 252 -23 8 8 -2 11 -39
11 -52 0 -117 32 -158 78 -19 22 -19 22 0 22 10 -1 30 -7 44 -15 34 -20 148
-18 235 4 64 16 67 18 40 25 -70 16 -106 30 -120 46 -14 15 -11 16 33 16 50 0
212 34 212 45 0 4 -17 10 -37 14 -21 3 -58 16 -83 28 l-45 21 105 7 c118 9
195 30 165 46 -9 6 -15 18 -13 29 4 23 66 33 79 12 7 -10 9 -10 9 0 0 6 6 12
13 12 6 0 18 4 26 9 10 7 3 19 -33 53 -63 61 -62 83 2 52 26 -13 77 -26 116
-30 l69 -7 -27 45 c-14 25 -26 53 -26 63 0 16 5 14 33 -12 17 -17 52 -41 76
-53z m-364 -133 c11 -9 17 -18 13 -22 -7 -8 -87 45 -88 58 0 8 43 -13 75 -36z
m950 -567 c-3 -5 -13 -10 -21 -10 -8 0 -14 5 -14 10 0 6 9 10 21 10 11 0 17
-4 14 -10z"/>
<path d="M1432 1675 c0 -16 2 -22 5 -12 2 9 2 23 0 30 -3 6 -5 -1 -5 -18z"/>
<path d="M1562 1590 c-48 -11 -49 -18 -6 -25 22 -4 54 -11 72 -17 41 -12 49
-6 34 27 -12 27 -36 30 -100 15z"/>
<path d="M1716 1531 c-3 -5 1 -11 9 -15 8 -3 15 -12 15 -20 0 -9 8 -20 19 -25
16 -9 18 -6 17 20 -1 18 -6 27 -13 25 -6 -3 -14 2 -17 10 -6 16 -22 19 -30 5z"/>
<path d="M1706 1438 c-20 -38 -20 -39 -1 -32 8 4 15 15 15 25 0 10 5 19 10 19
6 0 10 5 10 10 0 21 -19 9 -34 -22z"/>
<path d="M1390 1400 c0 -5 5 -10 11 -10 5 0 7 5 4 10 -3 6 -8 10 -11 10 -2 0
-4 -4 -4 -10z"/>
<path d="M1635 1370 c-3 -5 -2 -10 4 -10 5 0 13 5 16 10 3 6 2 10 -4 10 -5 0
-13 -4 -16 -10z"/>
<path d="M602 1353 c8 -10 26 -46 39 -80 13 -35 27 -63 30 -63 4 0 12 14 19
30 13 31 30 40 30 17 0 -7 6 -22 14 -33 14 -19 15 -19 22 1 4 11 18 45 32 75
22 46 27 51 30 31 2 -13 2 -46 0 -72 l-3 -49 51 0 51 0 -4 53 -4 52 48 -53
c26 -30 52 -50 56 -46 4 4 7 29 7 55 0 60 7 79 31 79 16 0 19 -8 19 -58 0 -32
-5 -63 -12 -70 -9 -9 -3 -12 28 -12 34 1 37 2 22 14 -14 10 -18 28 -18 70 0
49 3 56 19 56 37 0 48 -23 41 -84 l-6 -56 48 0 c35 0 50 4 55 15 3 9 2 19 -2
23 -4 4 -10 1 -12 -5 -3 -7 -16 -13 -29 -13 -19 0 -24 5 -24 25 0 20 5 25 25
25 14 0 25 5 25 10 0 6 -11 10 -25 10 -20 0 -25 5 -25 26 0 24 3 26 30 21 22
-5 30 -3 30 8 0 12 -21 15 -123 15 l-124 0 4 -57 5 -58 -52 58 c-28 31 -55 57
-58 57 -4 0 -7 -33 -7 -72 0 -58 -3 -73 -15 -73 -12 0 -15 15 -15 73 l0 72
-31 0 c-28 0 -32 -4 -49 -55 -11 -30 -23 -55 -27 -55 -17 0 -20 51 -3 76 9 14
13 29 10 32 -4 4 -14 -3 -22 -15 l-15 -23 -18 23 c-25 31 -35 16 -15 -23 14
-27 15 -37 5 -59 -12 -26 -12 -26 -33 29 -22 57 -32 70 -56 70 -12 0 -11 -3 1
-17z"/>
<path d="M1260 1360 c-10 -6 -11 -10 -2 -10 16 0 16 -112 0 -128 -9 -9 -4 -12
22 -12 26 0 31 3 22 12 -7 7 -12 38 -12 70 0 52 2 58 20 58 31 0 37 -30 11
-51 l-22 -18 28 -36 c38 -48 62 -47 33 1 -17 26 -20 38 -11 47 17 17 13 55 -8
67 -24 13 -61 13 -81 0z"/>
<path d="M940 1185 c0 -19 5 -26 17 -23 25 5 27 25 4 38 -19 10 -21 8 -21 -15z
m25 -5 c3 -5 1 -10 -4 -10 -6 0 -11 5 -11 10 0 6 2 10 4 10 3 0 8 -4 11 -10z"/>
<path d="M622 1184 c-16 -11 -22 -25 -22 -52 0 -46 8 -58 43 -71 35 -14 77 -4
77 17 0 12 -3 13 -12 4 -34 -34 -96 13 -84 64 9 32 50 52 76 36 18 -11 36 -2
23 12 -12 12 -79 6 -101 -10z"/>
<path d="M752 1184 c-16 -11 -22 -25 -22 -53 0 -39 16 -61 55 -76 l20 -7 -20
-9 c-17 -7 -16 -8 8 -6 15 1 28 5 28 9 -1 4 11 19 24 32 67 67 -15 165 -93
110z m76 -6 c13 -13 16 -66 6 -92 -4 -9 -18 -16 -33 -16 -44 0 -68 71 -35 104
18 19 45 21 62 4z"/>
<path d="M892 1148 c-1 -29 -5 -61 -8 -70 -3 -12 0 -18 9 -18 9 0 14 12 15 36
1 20 3 38 5 40 2 2 12 -14 23 -36 10 -22 22 -40 25 -40 4 0 16 24 28 53 l21
52 -3 -53 -2 -52 55 0 c33 0 50 4 42 9 -19 12 -12 116 8 116 12 0 15 -14 15
-62 0 -41 4 -63 11 -63 8 0 10 16 7 48 l-4 47 41 -47 c23 -27 46 -48 50 -48 5
0 10 32 12 70 2 59 1 70 -13 70 -14 0 -16 -9 -12 -47 l4 -48 -43 48 c-36 39
-49 47 -78 47 l-36 0 4 -65 c4 -53 2 -65 -11 -65 -19 0 -33 96 -16 116 9 11 7
14 -10 14 -16 0 -27 -12 -42 -47 -21 -49 -26 -49 -56 6 -28 51 -38 48 -41 -11z"/>
<path d="M1280 1180 c-49 -49 -3 -139 64 -126 36 8 34 6 42 44 6 31 5 32 -27
31 -19 -1 -26 -3 -16 -6 10 -3 17 -14 17 -29 0 -34 -43 -33 -66 2 -23 34 -9
75 30 89 23 8 30 6 41 -8 11 -16 13 -16 19 -1 9 24 9 24 -39 24 -32 0 -51 -6
-65 -20z"/>
<path d="M1144 1035 c-19 -14 -18 -14 4 -15 13 0 22 6 22 15 0 19 -1 19 -26 0z"/>
<path d="M837 1032 c-3 -4 3 -17 13 -30 10 -12 21 -18 24 -13 3 5 -1 14 -10
21 -12 11 -12 15 -2 21 10 7 9 9 -4 9 -9 0 -19 -3 -21 -8z"/>
<path d="M899 1008 c5 -33 6 -33 9 -5 2 15 8 25 13 22 5 -4 9 -1 9 4 0 6 -8
11 -18 11 -15 0 -18 -6 -13 -32z"/>
<path d="M1001 1008 c0 -18 3 -27 6 -20 4 10 8 10 18 2 11 -9 13 -6 12 17 -2
17 -9 29 -20 31 -13 3 -17 -3 -16 -30z m29 12 c0 -5 -4 -10 -10 -10 -5 0 -10
5 -10 10 0 6 5 10 10 10 6 0 10 -4 10 -10z"/>
<path d="M1061 1015 c-1 -24 3 -31 20 -32 17 -2 18 1 9 13 -10 11 -9 18 1 32
13 15 12 16 -3 4 -13 -10 -17 -10 -21 0 -3 7 -6 -1 -6 -17z"/>
<path d="M950 1022 c0 -6 -2 -16 -5 -24 -3 -8 3 -13 19 -14 21 -2 23 1 17 19
-8 22 -31 36 -31 19z"/>
<path d="M815 887 c-4 -10 -2 -29 5 -43 17 -31 65 -34 73 -4 4 16 0 20 -18 20
-12 0 -29 10 -38 23 -14 20 -16 21 -22 4z"/>
<path d="M813 695 c-7 -20 5 -34 15 -18 4 7 18 10 30 6 12 -3 19 -10 15 -15
-3 -6 0 -9 6 -7 7 3 12 8 12 12 -1 4 -1 14 -1 22 0 21 -68 21 -77 0z"/>
</g>
</svg>
